<?xml version="1.0" encoding="utf-8"?>
<!-- Generator: Adobe Illustrator 23.0.1, SVG Export Plug-In . SVG Version: 6.00 Build 0)  -->
<svg version="1.1" id="Layer_1" xmlns="http://www.w3.org/2000/svg" xmlns:xlink="http://www.w3.org/1999/xlink" x="0px" y="0px"
	 viewBox="0 0 135 125" style="enable-background:new 0 0 135 125;" xml:space="preserve">
<style type="text/css">
	.st0{fill:#5F9695;}
	.st1{font-family:'DidactGothic-Regular';}
	.st2{font-size:34px;}
	.st3{fill:#C4D7D1;}
	.st4{fill:#F1BC68;}
</style>
<text transform="matrix(1 0 0 1 8.4092 112.5908)"><tspan x="0" y="0" class="st0 st1 st2">chat</tspan><tspan x="62.8" y="0" class="st3 st1 st2">app</tspan></text>
<path class="st3" d="M226.3,188.3"/>
<path class="st4" d="M28.6,78.9c6.6,1,18.3-4.5,20.4-5.5c0.2-0.1,0.5-0.1,0.7-0.1c2.2,0.4,4.5,0.7,6.8,0.7C73.9,74,88,61.5,88,46
	S73.9,18,56.5,18S25,30.5,25,46c0,7.5,3.3,14.3,8.7,19.3c0.3,0.3,0.4,0.7,0.3,1.1c-0.5,2-2.3,7.7-5.9,10.4
	C27.3,77.5,27.6,78.8,28.6,78.9z"/>
<path class="st3" d="M81.7,57h-9.9C62,57,54,49,54,39.2V26.8C54,17,62,9,71.8,9h31.5C113,9,121,17,121,26.8v12.5
	c0,9.8-8,17.8-17.8,17.8h-3v10.6c0,1-1.1,1.6-1.9,1L81.7,57z"/>
</svg>
